<svg width="1120" height="253" viewBox="0 0 1120 253" fill="none" xmlns="http://www.w3.org/2000/svg">
<path fill-rule="evenodd" clip-rule="evenodd" d="M137.063 0.434723C145.748 17.8027 163.529 29.848 184.197 30.2907C188.885 56.8887 212.031 77.1667 239.999 77.3292C241.026 77.3352 242.047 77.3139 243.061 77.2661C249.461 92.3989 253 109.036 253 126.5C253 196.364 196.364 253 126.5 253C81.607 253 42.176 229.615 19.7239 194.361C6.6812 174.135 -0.0455674 150.545 0.000237032 126.748L0 126.5C0 60.2751 50.8894 5.9361 115.696 0.454872C119.215 0.145264 122.743 -0.00634003 126.271 0.000205994L126.5 0C130.057 0 133.58 0.14682 137.063 0.434723ZM126.5 234C136.64 234 146.453 232.596 155.753 229.972C154.769 226.632 153.71 222.973 152.625 219.163L144.978 192.289L150.859 187.716C185.253 160.961 188.097 147.64 171.311 91.9294C162.034 61.1453 158.51 55.0098 151.607 57.6567C147.163 59.3625 147.24 68.7954 152.027 109.511C153.507 122.093 153.199 123.344 148.239 124.918C139.083 127.823 135.656 122.306 135.357 104.19C134.771 68.3956 132.588 57.9373 125.693 57.9373C118.81 57.9373 116.617 68.3807 116.028 103.997C115.752 120.578 113.102 126.219 105.591 126.219C98.7949 126.219 97.9504 119.384 101.043 89.4091C103.482 65.7513 103.4 60.7431 100.546 58.9379C92.3666 53.7659 89.6493 58.7914 77.1008 102.273C64.674 145.343 66.2785 154.769 89.9349 177.647L105.884 193.071L98.8123 218.616C97.6503 222.814 96.6418 226.435 95.7025 229.523C105.459 232.436 115.797 234 126.5 234Z" fill="#0047FF"/>
<mask id="path-2-outside-1_18_701" maskUnits="userSpaceOnUse" x="309.444" y="35.3562" width="810" height="163" fill="black">
<rect fill="white" x="309.444" y="35.3562" width="810" height="163"/>
<path d="M407.953 180.624C397.419 191.015 383.968 196.211 367.599 196.211C351.229 196.211 337.778 191.015 327.244 180.624C316.711 170.091 311.444 156.782 311.444 140.697C311.444 124.612 316.711 111.375 327.244 100.983C337.778 90.4501 351.229 85.1834 367.599 85.1834C383.968 85.1834 397.419 90.4501 407.953 100.983C418.486 111.375 423.753 124.612 423.753 140.697C423.753 156.782 418.486 170.091 407.953 180.624ZM346.461 164.184C351.87 170.02 358.916 172.938 367.599 172.938C376.282 172.938 383.256 169.949 388.523 163.97C393.932 157.992 396.637 150.234 396.637 140.697C396.637 131.16 393.932 123.403 388.523 117.424C383.256 111.446 376.282 108.456 367.599 108.456C358.916 108.456 351.87 111.446 346.461 117.424C341.194 123.26 338.561 131.018 338.561 140.697C338.561 150.376 341.194 158.205 346.461 164.184Z"/>
<path d="M513.376 112.94C509.532 111.232 504.977 110.378 499.711 110.378C491.455 110.378 484.551 114.079 479 121.481C473.591 128.74 470.886 139.914 470.886 155.003V194.503H443.983V86.8916H470.886V106.535C473.591 100.414 478.003 95.361 484.124 91.3754C490.387 87.2474 496.793 85.1834 503.34 85.1834C507.753 85.1834 511.667 85.7528 515.084 86.8916L513.376 112.94Z"/>
<path d="M572.449 196.211C556.507 196.211 543.98 191.158 534.87 181.051C525.76 170.803 521.206 157.351 521.206 140.697C521.206 124.043 525.76 110.663 534.87 100.556C543.98 90.3078 556.364 85.1834 572.022 85.1834C585.829 85.1834 596.22 89.7384 603.195 98.8484V43.3346H630.098V194.503H603.195V182.119C600.491 186.389 596.363 189.805 590.811 192.368C585.26 194.93 579.139 196.211 572.449 196.211ZM576.292 172.938C584.975 172.938 591.879 170.02 597.003 164.184C602.27 158.205 604.903 150.376 604.903 140.697C604.903 131.018 602.27 123.26 597.003 117.424C591.879 111.446 584.975 108.456 576.292 108.456C567.752 108.456 560.848 111.446 555.581 117.424C550.457 123.26 547.895 131.018 547.895 140.697C547.895 150.376 550.457 158.205 555.581 164.184C560.848 170.02 567.752 172.938 576.292 172.938Z"/>
<path d="M757.666 137.067C757.666 141.338 757.524 144.896 757.239 147.743H677.385C678.523 155.857 681.584 162.191 686.566 166.746C691.548 171.301 697.882 173.578 705.569 173.578C711.832 173.578 717.098 172.155 721.369 169.308C725.639 166.461 728.486 162.404 729.909 157.138L755.104 163.97C752.115 174.077 746.207 181.977 737.382 187.67C728.557 193.364 717.81 196.211 705.142 196.211C688.203 196.211 674.822 190.731 665.001 179.77C655.321 168.668 650.482 155.643 650.482 140.697C650.482 125.609 655.108 112.584 664.36 101.624C673.755 90.6636 686.85 85.1834 703.647 85.1834C720.728 85.1834 733.966 90.4501 743.361 100.983C752.898 111.375 757.666 123.403 757.666 137.067ZM678.025 128.1H728.842C728.13 121.41 725.639 116.001 721.369 111.873C717.098 107.745 711.191 105.681 703.647 105.681C696.957 105.681 691.334 107.602 686.779 111.446C682.367 115.289 679.449 120.84 678.025 128.1Z"/>
<path d="M847.409 112.94C843.566 111.232 839.011 110.378 833.744 110.378C825.488 110.378 818.584 114.079 813.033 121.481C807.624 128.74 804.919 139.914 804.919 155.003V194.503H778.017V86.8916H804.919V106.535C807.624 100.414 812.037 95.361 818.157 91.3754C824.42 87.2474 830.826 85.1834 837.374 85.1834C841.786 85.1834 845.701 85.7528 849.117 86.8916L847.409 112.94Z"/>
<path d="M890.379 65.7536C887.105 68.8852 883.048 70.4509 878.208 70.4509C873.369 70.4509 869.383 68.8852 866.251 65.7536C863.12 62.4797 861.554 58.4941 861.554 53.7968C861.554 49.0995 863.12 45.1851 866.251 42.0535C869.383 38.922 873.369 37.3562 878.208 37.3562C883.048 37.3562 887.105 38.9931 890.379 42.267C893.652 45.3986 895.289 49.2418 895.289 53.7968C895.289 58.4941 893.652 62.4797 890.379 65.7536ZM864.757 194.503V86.8916H891.66V194.503H864.757Z"/>
<path d="M955.297 196.211C943.198 196.211 933.091 193.151 924.978 187.03C916.864 180.767 911.313 173.223 908.324 164.397L930.316 155.43C932.024 161.266 935.013 166.034 939.283 169.735C943.554 173.436 948.892 175.286 955.297 175.286C960.279 175.286 964.265 174.148 967.254 171.87C970.385 169.45 971.951 166.532 971.951 163.116C971.951 159.415 969.887 156.497 965.759 154.362C961.774 152.227 956.934 150.519 951.24 149.238C945.546 147.814 939.782 146.106 933.945 144.113C928.252 142.121 923.341 138.704 919.213 133.865C915.227 129.025 913.235 122.833 913.235 115.289C913.235 106.606 916.722 99.4177 923.697 93.724C930.672 88.0303 939.924 85.1834 951.454 85.1834C961.987 85.1834 971.239 87.6033 979.211 92.4429C987.324 97.2826 992.52 103.617 994.797 111.446L973.019 120.627C971.595 115.787 968.891 112.015 964.905 109.311C960.919 106.464 956.578 105.04 951.881 105.04C947.61 105.04 944.123 105.965 941.419 107.816C938.856 109.524 937.575 111.873 937.575 114.862C937.575 118.278 939.568 120.912 943.554 122.762C947.682 124.612 952.592 126.178 958.286 127.459C964.122 128.598 969.958 130.164 975.794 132.157C981.63 134.149 986.541 137.708 990.527 142.832C994.655 147.957 996.719 154.576 996.719 162.689C996.719 172.084 992.875 180.055 985.189 186.603C977.502 193.008 967.538 196.211 955.297 196.211Z"/>
<path d="M1117.14 137.067C1117.14 141.338 1117 144.896 1116.71 147.743H1036.86C1037.99 155.857 1041.06 162.191 1046.04 166.746C1051.02 171.301 1057.35 173.578 1065.04 173.578C1071.3 173.578 1076.57 172.155 1080.84 169.308C1085.11 166.461 1087.96 162.404 1089.38 157.138L1114.58 163.97C1111.59 174.077 1105.68 181.977 1096.85 187.67C1088.03 193.364 1077.28 196.211 1064.61 196.211C1047.67 196.211 1034.29 190.731 1024.47 179.77C1014.79 168.668 1009.95 155.643 1009.95 140.697C1009.95 125.609 1014.58 112.584 1023.83 101.624C1033.23 90.6636 1046.32 85.1834 1063.12 85.1834C1080.2 85.1834 1093.44 90.4501 1102.83 100.983C1112.37 111.375 1117.14 123.403 1117.14 137.067ZM1037.5 128.1H1088.31C1087.6 121.41 1085.11 116.001 1080.84 111.873C1076.57 107.745 1070.66 105.681 1063.12 105.681C1056.43 105.681 1050.81 107.602 1046.25 111.446C1041.84 115.289 1038.92 120.84 1037.5 128.1Z"/>
</mask>
<path d="M407.953 180.624C397.419 191.015 383.968 196.211 367.599 196.211C351.229 196.211 337.778 191.015 327.244 180.624C316.711 170.091 311.444 156.782 311.444 140.697C311.444 124.612 316.711 111.375 327.244 100.983C337.778 90.4501 351.229 85.1834 367.599 85.1834C383.968 85.1834 397.419 90.4501 407.953 100.983C418.486 111.375 423.753 124.612 423.753 140.697C423.753 156.782 418.486 170.091 407.953 180.624ZM346.461 164.184C351.87 170.02 358.916 172.938 367.599 172.938C376.282 172.938 383.256 169.949 388.523 163.97C393.932 157.992 396.637 150.234 396.637 140.697C396.637 131.16 393.932 123.403 388.523 117.424C383.256 111.446 376.282 108.456 367.599 108.456C358.916 108.456 351.87 111.446 346.461 117.424C341.194 123.26 338.561 131.018 338.561 140.697C338.561 150.376 341.194 158.205 346.461 164.184Z" fill="black"/>
<path d="M513.376 112.94C509.532 111.232 504.977 110.378 499.711 110.378C491.455 110.378 484.551 114.079 479 121.481C473.591 128.74 470.886 139.914 470.886 155.003V194.503H443.983V86.8916H470.886V106.535C473.591 100.414 478.003 95.361 484.124 91.3754C490.387 87.2474 496.793 85.1834 503.34 85.1834C507.753 85.1834 511.667 85.7528 515.084 86.8916L513.376 112.94Z" fill="black"/>
<path d="M572.449 196.211C556.507 196.211 543.98 191.158 534.87 181.051C525.76 170.803 521.206 157.351 521.206 140.697C521.206 124.043 525.76 110.663 534.87 100.556C543.98 90.3078 556.364 85.1834 572.022 85.1834C585.829 85.1834 596.22 89.7384 603.195 98.8484V43.3346H630.098V194.503H603.195V182.119C600.491 186.389 596.363 189.805 590.811 192.368C585.26 194.93 579.139 196.211 572.449 196.211ZM576.292 172.938C584.975 172.938 591.879 170.02 597.003 164.184C602.27 158.205 604.903 150.376 604.903 140.697C604.903 131.018 602.27 123.26 597.003 117.424C591.879 111.446 584.975 108.456 576.292 108.456C567.752 108.456 560.848 111.446 555.581 117.424C550.457 123.26 547.895 131.018 547.895 140.697C547.895 150.376 550.457 158.205 555.581 164.184C560.848 170.02 567.752 172.938 576.292 172.938Z" fill="black"/>
<path d="M757.666 137.067C757.666 141.338 757.524 144.896 757.239 147.743H677.385C678.523 155.857 681.584 162.191 686.566 166.746C691.548 171.301 697.882 173.578 705.569 173.578C711.832 173.578 717.098 172.155 721.369 169.308C725.639 166.461 728.486 162.404 729.909 157.138L755.104 163.97C752.115 174.077 746.207 181.977 737.382 187.67C728.557 193.364 717.81 196.211 705.142 196.211C688.203 196.211 674.822 190.731 665.001 179.77C655.321 168.668 650.482 155.643 650.482 140.697C650.482 125.609 655.108 112.584 664.36 101.624C673.755 90.6636 686.85 85.1834 703.647 85.1834C720.728 85.1834 733.966 90.4501 743.361 100.983C752.898 111.375 757.666 123.403 757.666 137.067ZM678.025 128.1H728.842C728.13 121.41 725.639 116.001 721.369 111.873C717.098 107.745 711.191 105.681 703.647 105.681C696.957 105.681 691.334 107.602 686.779 111.446C682.367 115.289 679.449 120.84 678.025 128.1Z" fill="black"/>
<path d="M847.409 112.94C843.566 111.232 839.011 110.378 833.744 110.378C825.488 110.378 818.584 114.079 813.033 121.481C807.624 128.74 804.919 139.914 804.919 155.003V194.503H778.017V86.8916H804.919V106.535C807.624 100.414 812.037 95.361 818.157 91.3754C824.42 87.2474 830.826 85.1834 837.374 85.1834C841.786 85.1834 845.701 85.7528 849.117 86.8916L847.409 112.94Z" fill="black"/>
<path d="M890.379 65.7536C887.105 68.8852 883.048 70.4509 878.208 70.4509C873.369 70.4509 869.383 68.8852 866.251 65.7536C863.12 62.4797 861.554 58.4941 861.554 53.7968C861.554 49.0995 863.12 45.1851 866.251 42.0535C869.383 38.922 873.369 37.3562 878.208 37.3562C883.048 37.3562 887.105 38.9931 890.379 42.267C893.652 45.3986 895.289 49.2418 895.289 53.7968C895.289 58.4941 893.652 62.4797 890.379 65.7536ZM864.757 194.503V86.8916H891.66V194.503H864.757Z" fill="black"/>
<path d="M955.297 196.211C943.198 196.211 933.091 193.151 924.978 187.03C916.864 180.767 911.313 173.223 908.324 164.397L930.316 155.43C932.024 161.266 935.013 166.034 939.283 169.735C943.554 173.436 948.892 175.286 955.297 175.286C960.279 175.286 964.265 174.148 967.254 171.87C970.385 169.45 971.951 166.532 971.951 163.116C971.951 159.415 969.887 156.497 965.759 154.362C961.774 152.227 956.934 150.519 951.24 149.238C945.546 147.814 939.782 146.106 933.945 144.113C928.252 142.121 923.341 138.704 919.213 133.865C915.227 129.025 913.235 122.833 913.235 115.289C913.235 106.606 916.722 99.4177 923.697 93.724C930.672 88.0303 939.924 85.1834 951.454 85.1834C961.987 85.1834 971.239 87.6033 979.211 92.4429C987.324 97.2826 992.52 103.617 994.797 111.446L973.019 120.627C971.595 115.787 968.891 112.015 964.905 109.311C960.919 106.464 956.578 105.04 951.881 105.04C947.61 105.04 944.123 105.965 941.419 107.816C938.856 109.524 937.575 111.873 937.575 114.862C937.575 118.278 939.568 120.912 943.554 122.762C947.682 124.612 952.592 126.178 958.286 127.459C964.122 128.598 969.958 130.164 975.794 132.157C981.63 134.149 986.541 137.708 990.527 142.832C994.655 147.957 996.719 154.576 996.719 162.689C996.719 172.084 992.875 180.055 985.189 186.603C977.502 193.008 967.538 196.211 955.297 196.211Z" fill="black"/>
<path d="M1117.14 137.067C1117.14 141.338 1117 144.896 1116.71 147.743H1036.86C1037.99 155.857 1041.06 162.191 1046.04 166.746C1051.02 171.301 1057.35 173.578 1065.04 173.578C1071.3 173.578 1076.57 172.155 1080.84 169.308C1085.11 166.461 1087.96 162.404 1089.38 157.138L1114.58 163.97C1111.59 174.077 1105.68 181.977 1096.85 187.67C1088.03 193.364 1077.28 196.211 1064.61 196.211C1047.67 196.211 1034.29 190.731 1024.47 179.77C1014.79 168.668 1009.95 155.643 1009.95 140.697C1009.95 125.609 1014.58 112.584 1023.83 101.624C1033.23 90.6636 1046.32 85.1834 1063.12 85.1834C1080.2 85.1834 1093.44 90.4501 1102.83 100.983C1112.37 111.375 1117.14 123.403 1117.14 137.067ZM1037.5 128.1H1088.31C1087.6 121.41 1085.11 116.001 1080.84 111.873C1076.57 107.745 1070.66 105.681 1063.12 105.681C1056.43 105.681 1050.81 107.602 1046.25 111.446C1041.84 115.289 1038.92 120.84 1037.5 128.1Z" fill="black"/>
<path d="M407.953 180.624C397.419 191.015 383.968 196.211 367.599 196.211C351.229 196.211 337.778 191.015 327.244 180.624C316.711 170.091 311.444 156.782 311.444 140.697C311.444 124.612 316.711 111.375 327.244 100.983C337.778 90.4501 351.229 85.1834 367.599 85.1834C383.968 85.1834 397.419 90.4501 407.953 100.983C418.486 111.375 423.753 124.612 423.753 140.697C423.753 156.782 418.486 170.091 407.953 180.624ZM346.461 164.184C351.87 170.02 358.916 172.938 367.599 172.938C376.282 172.938 383.256 169.949 388.523 163.97C393.932 157.992 396.637 150.234 396.637 140.697C396.637 131.16 393.932 123.403 388.523 117.424C383.256 111.446 376.282 108.456 367.599 108.456C358.916 108.456 351.87 111.446 346.461 117.424C341.194 123.26 338.561 131.018 338.561 140.697C338.561 150.376 341.194 158.205 346.461 164.184Z" stroke="black" stroke-width="4" mask="url(#path-2-outside-1_18_701)"/>
<path d="M513.376 112.94C509.532 111.232 504.977 110.378 499.711 110.378C491.455 110.378 484.551 114.079 479 121.481C473.591 128.74 470.886 139.914 470.886 155.003V194.503H443.983V86.8916H470.886V106.535C473.591 100.414 478.003 95.361 484.124 91.3754C490.387 87.2474 496.793 85.1834 503.34 85.1834C507.753 85.1834 511.667 85.7528 515.084 86.8916L513.376 112.94Z" stroke="black" stroke-width="4" mask="url(#path-2-outside-1_18_701)"/>
<path d="M572.449 196.211C556.507 196.211 543.98 191.158 534.87 181.051C525.76 170.803 521.206 157.351 521.206 140.697C521.206 124.043 525.76 110.663 534.87 100.556C543.98 90.3078 556.364 85.1834 572.022 85.1834C585.829 85.1834 596.22 89.7384 603.195 98.8484V43.3346H630.098V194.503H603.195V182.119C600.491 186.389 596.363 189.805 590.811 192.368C585.26 194.93 579.139 196.211 572.449 196.211ZM576.292 172.938C584.975 172.938 591.879 170.02 597.003 164.184C602.27 158.205 604.903 150.376 604.903 140.697C604.903 131.018 602.27 123.26 597.003 117.424C591.879 111.446 584.975 108.456 576.292 108.456C567.752 108.456 560.848 111.446 555.581 117.424C550.457 123.26 547.895 131.018 547.895 140.697C547.895 150.376 550.457 158.205 555.581 164.184C560.848 170.02 567.752 172.938 576.292 172.938Z" stroke="black" stroke-width="4" mask="url(#path-2-outside-1_18_701)"/>
<path d="M757.666 137.067C757.666 141.338 757.524 144.896 757.239 147.743H677.385C678.523 155.857 681.584 162.191 686.566 166.746C691.548 171.301 697.882 173.578 705.569 173.578C711.832 173.578 717.098 172.155 721.369 169.308C725.639 166.461 728.486 162.404 729.909 157.138L755.104 163.97C752.115 174.077 746.207 181.977 737.382 187.67C728.557 193.364 717.81 196.211 705.142 196.211C688.203 196.211 674.822 190.731 665.001 179.77C655.321 168.668 650.482 155.643 650.482 140.697C650.482 125.609 655.108 112.584 664.36 101.624C673.755 90.6636 686.85 85.1834 703.647 85.1834C720.728 85.1834 733.966 90.4501 743.361 100.983C752.898 111.375 757.666 123.403 757.666 137.067ZM678.025 128.1H728.842C728.13 121.41 725.639 116.001 721.369 111.873C717.098 107.745 711.191 105.681 703.647 105.681C696.957 105.681 691.334 107.602 686.779 111.446C682.367 115.289 679.449 120.84 678.025 128.1Z" stroke="black" stroke-width="4" mask="url(#path-2-outside-1_18_701)"/>
<path d="M847.409 112.94C843.566 111.232 839.011 110.378 833.744 110.378C825.488 110.378 818.584 114.079 813.033 121.481C807.624 128.74 804.919 139.914 804.919 155.003V194.503H778.017V86.8916H804.919V106.535C807.624 100.414 812.037 95.361 818.157 91.3754C824.42 87.2474 830.826 85.1834 837.374 85.1834C841.786 85.1834 845.701 85.7528 849.117 86.8916L847.409 112.94Z" stroke="black" stroke-width="4" mask="url(#path-2-outside-1_18_701)"/>
<path d="M890.379 65.7536C887.105 68.8852 883.048 70.4509 878.208 70.4509C873.369 70.4509 869.383 68.8852 866.251 65.7536C863.12 62.4797 861.554 58.4941 861.554 53.7968C861.554 49.0995 863.12 45.1851 866.251 42.0535C869.383 38.922 873.369 37.3562 878.208 37.3562C883.048 37.3562 887.105 38.9931 890.379 42.267C893.652 45.3986 895.289 49.2418 895.289 53.7968C895.289 58.4941 893.652 62.4797 890.379 65.7536ZM864.757 194.503V86.8916H891.66V194.503H864.757Z" stroke="black" stroke-width="4" mask="url(#path-2-outside-1_18_701)"/>
<path d="M955.297 196.211C943.198 196.211 933.091 193.151 924.978 187.03C916.864 180.767 911.313 173.223 908.324 164.397L930.316 155.43C932.024 161.266 935.013 166.034 939.283 169.735C943.554 173.436 948.892 175.286 955.297 175.286C960.279 175.286 964.265 174.148 967.254 171.87C970.385 169.45 971.951 166.532 971.951 163.116C971.951 159.415 969.887 156.497 965.759 154.362C961.774 152.227 956.934 150.519 951.24 149.238C945.546 147.814 939.782 146.106 933.945 144.113C928.252 142.121 923.341 138.704 919.213 133.865C915.227 129.025 913.235 122.833 913.235 115.289C913.235 106.606 916.722 99.4177 923.697 93.724C930.672 88.0303 939.924 85.1834 951.454 85.1834C961.987 85.1834 971.239 87.6033 979.211 92.4429C987.324 97.2826 992.52 103.617 994.797 111.446L973.019 120.627C971.595 115.787 968.891 112.015 964.905 109.311C960.919 106.464 956.578 105.04 951.881 105.04C947.61 105.04 944.123 105.965 941.419 107.816C938.856 109.524 937.575 111.873 937.575 114.862C937.575 118.278 939.568 120.912 943.554 122.762C947.682 124.612 952.592 126.178 958.286 127.459C964.122 128.598 969.958 130.164 975.794 132.157C981.63 134.149 986.541 137.708 990.527 142.832C994.655 147.957 996.719 154.576 996.719 162.689C996.719 172.084 992.875 180.055 985.189 186.603C977.502 193.008 967.538 196.211 955.297 196.211Z" stroke="black" stroke-width="4" mask="url(#path-2-outside-1_18_701)"/>
<path d="M1117.14 137.067C1117.14 141.338 1117 144.896 1116.71 147.743H1036.86C1037.99 155.857 1041.06 162.191 1046.04 166.746C1051.02 171.301 1057.35 173.578 1065.04 173.578C1071.3 173.578 1076.57 172.155 1080.84 169.308C1085.11 166.461 1087.96 162.404 1089.38 157.138L1114.58 163.97C1111.59 174.077 1105.68 181.977 1096.85 187.67C1088.03 193.364 1077.28 196.211 1064.61 196.211C1047.67 196.211 1034.29 190.731 1024.47 179.77C1014.79 168.668 1009.95 155.643 1009.95 140.697C1009.95 125.609 1014.58 112.584 1023.83 101.624C1033.23 90.6636 1046.32 85.1834 1063.12 85.1834C1080.2 85.1834 1093.44 90.4501 1102.83 100.983C1112.37 111.375 1117.14 123.403 1117.14 137.067ZM1037.5 128.1H1088.31C1087.6 121.41 1085.11 116.001 1080.84 111.873C1076.57 107.745 1070.66 105.681 1063.12 105.681C1056.43 105.681 1050.81 107.602 1046.25 111.446C1041.84 115.289 1038.92 120.84 1037.5 128.1Z" stroke="black" stroke-width="4" mask="url(#path-2-outside-1_18_701)"/>
</svg>
