<svg width="1022" height="253" viewBox="0 0 1022 253" fill="none" xmlns="http://www.w3.org/2000/svg">
<path d="M340.16 167H360.384V94.68H386.624V77.4H313.792V94.68H340.16V167Z" fill="black"/>
<path d="M432.691 120.536L433.843 102.488C432.051 101.848 429.107 101.464 426.931 101.464C419.251 101.464 410.931 106.712 407.987 113.624V102.488H389.171V167H407.987V143.704C407.987 125.4 416.051 119 424.499 119C427.443 119 430.515 119.512 432.691 120.536Z" fill="black"/>
<path d="M466.262 101.464C452.438 101.464 440.662 109.656 438.614 122.328L454.998 125.4C455.638 119.128 460.118 115.416 466.262 115.416C473.174 115.416 477.526 119.256 477.526 125.656V126.04L465.878 127.192C447.318 129.112 437.974 136.024 437.974 148.824C437.974 159.576 446.806 168.024 459.35 168.024C466.518 168.024 473.814 164.44 477.526 158.808V167H495.702V128.728C495.702 110.552 483.798 101.464 466.262 101.464ZM463.958 154.584C458.71 154.584 455.894 151.768 455.894 148.184C455.894 144.472 459.094 141.272 465.494 140.632L477.526 139.224V140.248C477.398 147.8 472.406 154.584 463.958 154.584Z" fill="black"/>
<path d="M509.912 76.376V94.424H529.752V76.376H509.912ZM510.296 167H529.112V102.488H510.296V167Z" fill="black"/>
<path d="M583.863 166.36L582.583 150.104C580.407 151.256 577.591 151.64 575.287 151.64C570.679 151.64 567.607 148.312 567.607 142.552V118.104H583.223V102.488H567.607V83.8H548.791V102.488H538.551V118.104H548.791V144.984C548.791 160.6 559.415 168.024 573.367 168.024C577.207 168.024 580.791 167.384 583.863 166.36Z" fill="black"/>
<path d="M655.123 133.08C655.123 118.744 645.267 101.464 621.971 101.464C599.699 101.464 589.971 118.744 589.971 134.744C589.971 150.744 600.851 168.024 623.123 168.024C638.483 168.024 650.003 160.984 653.843 148.824L636.179 144.088C634.771 149.464 630.035 152.408 623.635 152.408C615.699 152.408 610.323 148.056 608.531 140.12H654.867C654.995 138.712 655.123 135.64 655.123 133.08ZM608.787 126.808C610.579 119.256 615.187 115.416 621.971 115.416C630.291 115.416 634.387 120.28 635.027 126.808H608.787Z" fill="black"/>
<path d="M728.754 102.488H710.066V130.776C710.066 144.088 705.33 151.384 696.37 151.384C689.714 151.384 685.362 146.648 685.362 139.608V102.488H666.546V144.6C666.546 158.808 676.146 168.024 690.354 168.024C699.058 168.024 706.098 164.056 710.066 158.424V167H728.754V102.488Z" fill="black"/>
<path d="M786.941 120.536L788.093 102.488C786.301 101.848 783.357 101.464 781.181 101.464C773.501 101.464 765.181 106.712 762.237 113.624V102.488H743.421V167H762.237V143.704C762.237 125.4 770.301 119 778.749 119C781.693 119 784.765 119.512 786.941 120.536Z" fill="black"/>
<path d="M828.317 167H848.541V133.464H865.437C883.997 133.464 895.901 122.456 895.901 105.432C895.901 88.408 883.997 77.4 865.437 77.4H828.317V167ZM848.541 116.184V94.68H863.389C871.069 94.68 875.677 98.776 875.677 105.432C875.677 112.088 871.069 116.184 863.389 116.184H848.541Z" fill="black"/>
<path d="M948.941 120.536L950.093 102.488C948.301 101.848 945.357 101.464 943.181 101.464C935.501 101.464 927.181 106.712 924.237 113.624V102.488H905.421V167H924.237V143.704C924.237 125.4 932.301 119 940.749 119C943.693 119 946.765 119.512 948.941 120.536Z" fill="black"/>
<path d="M987.644 168.024C1007.36 168.024 1021.69 153.944 1021.69 134.744C1021.69 115.544 1007.36 101.464 987.644 101.464C967.676 101.464 953.596 115.544 953.596 134.744C953.596 153.944 967.676 168.024 987.644 168.024ZM987.644 152.024C978.428 152.024 972.284 144.984 972.284 134.744C972.284 124.504 978.428 117.464 987.644 117.464C996.732 117.464 1002.88 124.504 1002.88 134.744C1002.88 144.984 996.732 152.024 987.644 152.024Z" fill="black"/>
<path fill-rule="evenodd" clip-rule="evenodd" d="M137.063 0.434723C145.748 17.8027 163.529 29.848 184.197 30.2907C188.885 56.8887 212.031 77.1667 239.999 77.3292C241.026 77.3352 242.047 77.3139 243.061 77.2661C249.461 92.3989 253 109.036 253 126.5C253 196.364 196.364 253 126.5 253C81.607 253 42.176 229.615 19.7239 194.361C6.6812 174.135 -0.0455674 150.545 0.000237032 126.748L0 126.5C0 60.2751 50.8894 5.9361 115.696 0.454872C119.215 0.145264 122.743 -0.00634003 126.271 0.000205994L126.5 0C130.057 0 133.58 0.14682 137.063 0.434723ZM126.5 234C136.64 234 146.453 232.596 155.753 229.972C154.769 226.632 153.71 222.973 152.625 219.163L144.978 192.289L150.859 187.716C185.253 160.961 188.097 147.64 171.311 91.9294C162.034 61.1453 158.51 55.0098 151.607 57.6567C147.163 59.3625 147.24 68.7954 152.027 109.511C153.507 122.093 153.199 123.344 148.239 124.918C139.083 127.823 135.656 122.306 135.357 104.19C134.771 68.3956 132.588 57.9373 125.693 57.9373C118.81 57.9373 116.617 68.3807 116.028 103.997C115.752 120.578 113.102 126.219 105.591 126.219C98.7949 126.219 97.9504 119.384 101.043 89.4091C103.482 65.7513 103.4 60.7431 100.546 58.9379C92.3666 53.7659 89.6493 58.7914 77.1008 102.273C64.674 145.343 66.2785 154.769 89.9349 177.647L105.884 193.071L98.8123 218.616C97.6503 222.814 96.6418 226.435 95.7025 229.523C105.459 232.436 115.797 234 126.5 234Z" fill="#0047FF"/>
</svg>
