<svg width="253" height="253" viewBox="0 0 253 253" fill="none" xmlns="http://www.w3.org/2000/svg">
<path fill-rule="evenodd" clip-rule="evenodd" d="M137.063 0.434723C145.748 17.8027 163.529 29.848 184.197 30.2907C188.885 56.8887 212.031 77.1667 239.999 77.3292C241.026 77.3352 242.047 77.3139 243.061 77.2661C249.461 92.3989 253 109.036 253 126.5C253 196.364 196.364 253 126.5 253C81.607 253 42.176 229.615 19.7239 194.361C6.6812 174.135 -0.0455674 150.545 0.000237032 126.748L0 126.5C0 60.2751 50.8894 5.9361 115.696 0.454872C119.215 0.145264 122.743 -0.00634003 126.271 0.000205994L126.5 0C130.057 0 133.58 0.14682 137.063 0.434723ZM126.5 234C136.64 234 146.453 232.596 155.753 229.972C154.769 226.632 153.71 222.973 152.625 219.163L144.978 192.289L150.859 187.716C185.253 160.961 188.097 147.64 171.311 91.9294C162.034 61.1453 158.51 55.0098 151.607 57.6567C147.163 59.3625 147.24 68.7954 152.027 109.511C153.507 122.093 153.199 123.344 148.239 124.918C139.083 127.823 135.656 122.306 135.357 104.19C134.771 68.3956 132.588 57.9373 125.693 57.9373C118.81 57.9373 116.617 68.3807 116.028 103.997C115.752 120.578 113.102 126.219 105.591 126.219C98.7949 126.219 97.9504 119.384 101.043 89.4091C103.482 65.7513 103.4 60.7431 100.546 58.9379C92.3666 53.7659 89.6493 58.7914 77.1008 102.273C64.674 145.343 66.2785 154.769 89.9349 177.647L105.884 193.071L98.8123 218.616C97.6503 222.814 96.6418 226.435 95.7025 229.523C105.459 232.436 115.797 234 126.5 234Z" fill="#0047FF"/>
</svg>
